# xmcd
#
# Track frame offsets:
#	150
#	19072
#	35907
#	54062
#	72370
#	92935
#	112440
#	128290
#	143057
#	163950
#
# Disc length: 2455 seconds
#
# Revision: 2
# Processed by: cddbd v1.4PL0 Copyright (c) Steve Scherf et al.
# Submitted via: dBpowerAMP V4.0
#
DISCID=8d09950a
DTITLE=Various Artist - Amazing Grace 
DYEAR=2000
DGENRE=Gospel
TTITLE0=Lari White-Amazing  Grace
TTITLE1=John Anderson--Peace in the Valley
TTITLE2=John Berry--Blessed Assurance
TTITLE3=Martina McBride--How great Thou Art
TTITLE4=Bily Dean and Susan Ashton--In The Garden
TTITLE5=Paul Overstreet--Mansion Over The Hilltop
TTITLE6=Shenandoah--Beulah Land
TTITLE7=Allison Krauss and the Cox Family--I'd Rather Have Jesus
TTITLE8=Charlie Daniels Band--Kneel at the Cross
TTITLE9=Emmilou Harris--Precious Memories
EXTD=Genre is Southern Gospel performed by various country artists
EXTT0=
EXTT1=
EXTT2=
EXTT3=
EXTT4=
EXTT5=
EXTT6=
EXTT7=
EXTT8=
EXTT9=
PLAYORDER=
